<?xml version="1.0" standalone="no"?>
<!DOCTYPE svg PUBLIC "-//W3C//DTD SVG 20010904//EN"
 "http://www.w3.org/TR/2001/REC-SVG-20010904/DTD/svg10.dtd">
<svg version="1.0" xmlns="http://www.w3.org/2000/svg"
 width="71.000000pt" height="43.000000pt" viewBox="0 0 71.000000 43.000000"
 preserveAspectRatio="xMidYMid meet">

<g transform="translate(0.000000,43.000000) scale(0.100000,-0.100000)"
fill="#ffffff" stroke="none">
<path d="M48 413 c-21 -8 -38 -19 -38 -24 0 -12 55 -39 80 -39 11 0 20 -4 20
-10 0 -5 -9 -10 -20 -10 -25 0 -80 -27 -80 -39 0 -5 18 -16 40 -25 57 -23 167
-21 232 4 29 11 54 20 56 20 1 0 2 -20 2 -44 l0 -45 -57 20 c-70 24 -177 25
-233 3 -48 -19 -50 -28 -10 -49 39 -20 194 -21 243 0 20 8 41 15 47 15 6 0 10
-35 10 -90 0 -53 4 -90 10 -90 6 0 10 37 10 90 0 50 4 90 9 90 5 0 28 -7 51
-15 86 -30 297 -10 274 26 -25 41 -173 52 -269 19 -32 -11 -60 -20 -62 -20 -1
0 -3 20 -3 45 0 25 2 45 3 45 2 0 30 -9 62 -20 95 -33 244 -22 269 18 8 13
-27 34 -74 42 -35 7 -30 13 20 24 14 3 34 11 44 19 19 14 19 15 -8 32 -46 30
-164 32 -252 5 l-74 -24 -63 22 c-74 26 -183 29 -239 5z m292 -74 c0 -38 -2
-41 -22 -34 -13 4 -42 12 -65 18 -46 12 -57 27 -20 27 12 1 36 7 52 15 49 22
55 19 55 -26z m113 18 c26 -6 47 -14 47 -17 0 -5 -23 -12 -117 -36 -21 -6 -23
-3 -23 36 0 39 2 42 23 36 12 -4 43 -12 70 -19z"/>
</g>
</svg>
